<svg xmlns="http://www.w3.org/2000/svg" xmlns:xlink="http://www.w3.org/1999/xlink" width="1080" zoomAndPan="magnify" viewBox="0 0 810 809.999993" height="1080" preserveAspectRatio="xMidYMid meet" version="1.0"><path fill="#01458e" d="M 43.707031 2.855469 L 765.832031 2.855469 C 787.898438 2.855469 805.949219 20.90625 805.949219 42.96875 L 805.949219 765.097656 C 805.949219 787.164062 787.898438 805.214844 765.832031 805.214844 L 43.707031 805.214844 C 21.644531 805.214844 3.59375 787.164062 3.59375 765.097656 L 3.59375 42.96875 C 3.59375 20.90625 21.644531 2.855469 43.707031 2.855469 Z M 43.707031 2.855469 " fill-opacity="1" fill-rule="evenodd"/><path fill="#fefefe" d="M 160.363281 279.707031 C 291.25 250.546875 576.824219 178.765625 582.675781 186.535156 C 588.871094 194.761719 534.316406 271.304688 545.816406 278.90625 C 557.320312 286.507812 790.589844 97.925781 610.082031 124.800781 C 472.765625 145.246094 245.441406 234.757812 157.820312 270.988281 C 139.40625 278.601562 142.511719 283.683594 160.363281 279.707031 Z M 160.363281 279.707031 " fill-opacity="1" fill-rule="evenodd"/><path fill="#ffffff" d="M 115.054688 498.125 C 262.292969 470.558594 576.855469 407.832031 583.441406 415.667969 C 590.417969 423.96875 525.757812 508.371094 538.695312 516.113281 C 551.636719 523.859375 829.210938 335.226562 617.140625 347.164062 C 488.863281 354.382812 225.019531 445.835938 112.195312 489.375 C 91.722656 497.269531 94.972656 501.878906 115.054688 498.125 Z M 115.054688 498.125 " fill-opacity="1" fill-rule="evenodd"/><path fill="#ffffff" d="M 56.773438 539.726562 C 241.667969 563.238281 667.988281 621.554688 673.605469 617.613281 C 679.238281 613.667969 643.796875 545.953125 632.535156 516.121094 C 627.160156 501.882812 633.789062 494.003906 647.085938 505.179688 C 694.078125 544.679688 877.609375 701.074219 686.960938 690.65625 C 514.574219 681.234375 297.875 637.566406 52.601562 554.300781 C 27.070312 545.632812 31.5625 536.523438 56.773438 539.726562 Z M 56.773438 539.726562 " fill-opacity="1" fill-rule="evenodd"/></svg>