<svg xmlns="http://www.w3.org/2000/svg" xmlns:xlink="http://www.w3.org/1999/xlink" width="1080" zoomAndPan="magnify" viewBox="0 0 810 809.999993" height="1080" preserveAspectRatio="xMidYMid meet" version="1.0"><path fill="#01458e" d="M 621.917969 440.246094 C 621.640625 440.273438 621.363281 440.273438 621.085938 440.273438 C 613.835938 440.273438 607.753906 434.613281 607.320312 427.28125 C 604.003906 371.199219 580.902344 317.894531 542.328125 277.171875 C 503.726562 236.460938 451.722656 210.546875 395.898438 204.238281 C 388.320312 203.382812 382.882812 196.542969 383.738281 188.96875 C 384.59375 181.394531 391.457031 175.902344 399.007812 176.796875 C 461.289062 183.839844 519.300781 212.742188 562.363281 258.171875 C 605.425781 303.601562 631.183594 363.082031 634.886719 425.652344 C 635.332031 433.261719 629.527344 439.800781 621.917969 440.246094 Z M 392.207031 276.460938 C 393.0625 268.894531 399.867188 263.480469 407.488281 264.300781 C 444.570312 268.496094 479.128906 285.710938 504.765625 312.769531 C 530.410156 339.824219 545.753906 375.242188 547.960938 412.503906 C 548.40625 420.113281 542.605469 426.652344 534.992188 427.097656 C 534.714844 427.125 534.4375 427.125 534.160156 427.125 C 526.910156 427.125 520.820312 421.476562 520.398438 414.144531 C 518.574219 383.359375 505.898438 354.105469 484.726562 331.765625 C 463.558594 309.425781 435.015625 295.203125 404.367188 291.730469 C 396.800781 290.886719 391.363281 284.035156 392.207031 276.460938 Z M 599.699219 618.34375 C 599.289062 618.765625 583.257812 633.914062 582.820312 634.335938 C 553.136719 662.878906 506.488281 668.546875 467.765625 659.476562 C 453.628906 656.171875 439.867188 651.417969 426.550781 645.640625 C 366.488281 619.535156 309.503906 573.359375 263.738281 524.808594 C 217.695312 476.496094 174.640625 417.136719 151.796875 355.761719 C 146.730469 342.152344 142.722656 328.148438 140.167969 313.855469 C 133.183594 274.710938 141.335938 228.4375 171.433594 200.320312 C 171.878906 199.898438 187.863281 184.710938 188.308594 184.3125 C 218.128906 158.136719 243.617188 191.34375 267.378906 216.871094 C 287.683594 238.667969 321.796875 274.554688 316.125 307.328125 C 312.988281 325.53125 293.652344 338.835938 286.933594 356.6875 C 278.371094 379.449219 282.410156 402.128906 296.777344 421.597656 C 306.402344 434.625 318.128906 448.511719 330.636719 461.394531 C 342.832031 474.566406 356.066406 487.027344 368.5625 497.328125 C 387.238281 512.71875 409.660156 517.980469 432.859375 510.632812 C 451.035156 504.878906 465.355469 486.289062 483.703125 484.121094 C 516.730469 480.210938 550.746094 516.207031 571.421875 537.640625 C 595.632812 562.746094 627.441406 589.957031 599.699219 618.34375 Z M 404.992188 -0.128906 C 181.335938 -0.128906 0.0234375 181.1875 0.0234375 404.855469 C 0.0234375 628.511719 181.335938 809.828125 404.992188 809.828125 C 628.660156 809.828125 809.964844 628.511719 809.964844 404.855469 C 809.964844 181.1875 628.660156 -0.128906 404.992188 -0.128906 " fill-opacity="1" fill-rule="nonzero"/></svg>