<svg xmlns="http://www.w3.org/2000/svg" xmlns:xlink="http://www.w3.org/1999/xlink" width="1080" zoomAndPan="magnify" viewBox="0 0 810 809.999993" height="1080" preserveAspectRatio="xMidYMid meet" version="1.0"><defs><clipPath id="deb20560b3"><path d="M 8.402344 0 L 801.902344 0 L 801.902344 810 L 8.402344 810 Z M 8.402344 0 " clip-rule="nonzero"/></clipPath></defs><path fill="#01458e" d="M 385.683594 325.324219 L 385.683594 258.308594 L 304.539062 258.308594 C 297.8125 278.402344 291.402344 300.976562 286.335938 325.324219 L 385.683594 325.324219 " fill-opacity="1" fill-rule="nonzero"/><path fill="#01458e" d="M 295.5625 183.0625 C 273.222656 193.707031 252.738281 207.539062 234.683594 223.945312 L 278.496094 223.945312 C 284.453125 208.167969 290.335938 194.417969 295.5625 183.0625 " fill-opacity="1" fill-rule="nonzero"/><path fill="#01458e" d="M 190.539062 345.941406 C 190.539062 334.601562 199.945312 325.324219 211.445312 325.324219 L 249.484375 325.324219 C 249.964844 322.847656 250.460938 320.375 250.980469 317.894531 C 255.453125 296.527344 260.859375 276.546875 266.601562 258.308594 L 203.300781 258.308594 C 176.042969 294.421875 158.5625 338.109375 154.746094 385.53125 L 190.539062 385.644531 L 190.539062 345.941406 " fill-opacity="1" fill-rule="nonzero"/><path fill="#01458e" d="M 219.082031 571.03125 C 238.394531 591.953125 261.304688 609.582031 286.828125 622.988281 C 277.902344 606.203125 270.195312 588.875 263.765625 571.03125 L 219.082031 571.03125 " fill-opacity="1" fill-rule="nonzero"/><path fill="#01458e" d="M 243.136719 485.722656 C 242.585938 481.535156 242.109375 477.320312 241.679688 473.089844 L 211.445312 473.089844 C 199.945312 473.089844 190.539062 463.8125 190.539062 452.472656 L 190.539062 420.007812 L 154.402344 419.894531 C 156.960938 462.632812 170.601562 502.476562 192.535156 536.664062 L 253.121094 536.664062 C 248.773438 520.0625 245.425781 503.078125 243.136719 485.722656 " fill-opacity="1" fill-rule="nonzero"/><path fill="#01458e" d="M 573.277344 223.945312 C 554.351562 206.746094 532.738281 192.386719 509.132812 181.550781 C 514.304688 193.441406 520.054688 207.695312 525.8125 223.945312 L 573.277344 223.945312 " fill-opacity="1" fill-rule="nonzero"/><path fill="#01458e" d="M 385.683594 159.316406 C 371.570312 160.324219 357.78125 162.507812 344.40625 165.746094 C 340.804688 172.191406 329.554688 193.082031 317.171875 223.945312 L 385.683594 223.945312 L 385.683594 159.316406 " fill-opacity="1" fill-rule="nonzero"/><path fill="#01458e" d="M 550.445312 312.738281 C 551.292969 316.945312 552.074219 321.136719 552.824219 325.324219 L 591.289062 325.324219 C 602.789062 325.324219 612.195312 334.601562 612.195312 345.941406 L 612.195312 386.992188 L 653.339844 387.128906 C 649.789062 339.089844 632.222656 294.828125 604.664062 258.308594 L 536.941406 258.308594 C 541.894531 275.140625 546.539062 293.363281 550.445312 312.738281 " fill-opacity="1" fill-rule="nonzero"/><path fill="#01458e" d="M 463.171875 165.652344 C 449.367188 162.335938 435.121094 160.152344 420.53125 159.207031 L 420.53125 223.945312 L 488.695312 223.945312 C 478.253906 196.203125 468.375 175.789062 463.171875 165.652344 " fill-opacity="1" fill-rule="nonzero"/><path fill="#01458e" d="M 516.46875 320.453125 C 512 298.058594 506.425781 277.160156 500.523438 258.308594 L 420.53125 258.308594 L 420.53125 325.324219 L 517.402344 325.324219 C 517.09375 323.699219 516.792969 322.078125 516.46875 320.453125 " fill-opacity="1" fill-rule="nonzero"/><path fill="#01458e" d="M 612.195312 421.359375 L 612.195312 452.472656 C 612.195312 463.8125 602.789062 473.089844 591.289062 473.089844 L 558.875 473.089844 C 558.601562 475.589844 558.308594 478.082031 557.992188 480.570312 C 555.5625 499.726562 551.875 518.425781 547.027344 536.664062 L 615.429688 536.664062 C 637.089844 502.90625 650.660156 463.625 653.457031 421.492188 L 612.195312 421.359375 " fill-opacity="1" fill-rule="nonzero"/><path fill="#01458e" d="M 510.375 628.316406 C 540.242188 614.410156 566.894531 594.851562 588.878906 571.03125 L 536.273438 571.03125 C 529.128906 590.78125 520.492188 609.890625 510.375 628.316406 " fill-opacity="1" fill-rule="nonzero"/><path fill="#01458e" d="M 341.289062 643.9375 C 355.632812 647.601562 370.476562 650.035156 385.683594 651.125 L 385.683594 571.03125 L 302.09375 571.03125 C 312.261719 596.46875 325.332031 620.789062 341.289062 643.9375 " fill-opacity="1" fill-rule="nonzero"/><path fill="#01458e" d="M 420.53125 571.03125 L 420.53125 651.234375 C 434.683594 650.316406 448.519531 648.238281 461.933594 645.085938 L 460.117188 643.875 C 475.976562 620.765625 489.003906 596.464844 499.230469 571.03125 L 420.53125 571.03125 " fill-opacity="1" fill-rule="nonzero"/><g clip-path="url(#deb20560b3)"><path fill="#01458e" d="M 403.980469 686.152344 C 246.894531 686.152344 119.097656 560.125 119.097656 405.21875 C 119.097656 250.316406 246.894531 124.289062 403.980469 124.289062 C 561.066406 124.289062 688.863281 250.316406 688.863281 405.21875 C 688.863281 560.125 561.066406 686.152344 403.980469 686.152344 Z M 405.003906 0.210938 C 185.964844 0.210938 8.402344 181.449219 8.402344 405.015625 C 8.402344 628.582031 185.964844 809.816406 405.003906 809.816406 C 624.039062 809.816406 801.605469 628.582031 801.605469 405.015625 C 801.605469 181.449219 624.039062 0.210938 405.003906 0.210938 " fill-opacity="1" fill-rule="nonzero"/></g><path fill="#01458e" d="M 290.3125 536.664062 L 385.683594 536.664062 L 385.683594 473.089844 L 277.839844 473.089844 C 280.242188 494.929688 284.398438 516.128906 290.3125 536.664062 " fill-opacity="1" fill-rule="nonzero"/><path fill="#01458e" d="M 420.53125 536.664062 L 511.121094 536.664062 C 517.125 516.136719 521.433594 494.9375 524.03125 473.089844 L 420.53125 473.089844 L 420.53125 536.664062 " fill-opacity="1" fill-rule="nonzero"/><path fill="#01458e" d="M 430.863281 451.824219 L 431.101562 450.886719 L 440.988281 450.886719 L 459.777344 385.089844 L 478.566406 450.886719 L 488.453125 450.886719 L 488.691406 451.824219 L 488.992188 450.886719 L 499.871094 450.886719 L 517.316406 395.976562 L 534.761719 450.886719 L 545.644531 450.886719 L 545.941406 451.824219 L 546.179688 450.886719 L 556.066406 450.886719 L 584.808594 350.230469 L 557.183594 350.230469 L 544.351562 401.148438 L 528.066406 350.230469 L 517.390625 350.230469 L 517.316406 350 L 517.242188 350.230469 L 506.566406 350.230469 L 490.28125 401.148438 L 477.449219 350.230469 L 442.105469 350.230469 L 429.269531 401.148438 L 412.988281 350.230469 L 402.3125 350.230469 L 402.238281 350 L 402.164062 350.230469 L 391.488281 350.230469 L 375.203125 401.148438 L 362.371094 350.230469 L 327.027344 350.230469 L 314.195312 401.148438 L 297.910156 350.230469 L 287.234375 350.230469 L 287.160156 350 L 287.089844 350.230469 L 276.410156 350.230469 L 260.128906 401.148438 L 247.292969 350.230469 L 219.667969 350.230469 L 248.414062 450.886719 L 258.300781 450.886719 L 258.535156 451.824219 L 258.835938 450.886719 L 269.714844 450.886719 L 287.160156 395.976562 L 304.605469 450.886719 L 315.488281 450.886719 L 315.785156 451.824219 L 316.023438 450.886719 L 325.910156 450.886719 L 344.699219 385.09375 L 363.492188 450.886719 L 373.375 450.886719 L 373.613281 451.824219 L 373.914062 450.886719 L 384.792969 450.886719 L 402.238281 395.976562 L 419.683594 450.886719 L 430.5625 450.886719 L 430.863281 451.824219 " fill-opacity="1" fill-rule="nonzero"/></svg>